<svg xmlns="http://www.w3.org/2000/svg" width="717" height="112" class="js-calendar-graph-svg">
<g transform="translate(15, 20)" data-hydro-click="{&quot;event_type&quot;:&quot;user_profile.click&quot;,&quot;payload&quot;:{&quot;profile_user_id&quot;:52474650,&quot;target&quot;:&quot;CONTRIBUTION_CALENDAR_SQUARE&quot;,&quot;user_id&quot;:null,&quot;originating_url&quot;:&quot;https://github.com/kokoichi206&quot;}}" data-hydro-click-hmac="a5d4ec41ee2eddf3caa5119790a030cadd2cbb8ffa92861618f2292976e93b0f">

<g transform="translate(0, 0)">
</g>
<g transform="translate(14, 0)">
</g>
<g transform="translate(28, 0)">
</g>
<g transform="translate(42, 0)">
</g>
<g transform="translate(56, 0)">
</g>
<g transform="translate(70, 0)">
</g>
<g transform="translate(84, 0)">
</g>
<g transform="translate(98, 0)">
</g>
<g transform="translate(112, 0)">
</g>
<g transform="translate(126, 0)">
</g>
<g transform="translate(140, 0)">
</g>
<g transform="translate(154, 0)">
</g>
<g transform="translate(168, 0)">
</g>
<g transform="translate(182, 0)">
</g>
<g transform="translate(196, 0)">
</g>
<g transform="translate(210, 0)">
</g>
<g transform="translate(224, 0)">
</g>
<g transform="translate(238, 0)">
</g>
<g transform="translate(252, 0)">
</g>
<g transform="translate(266, 0)">
</g>
<g transform="translate(280, 0)">
</g>
<g transform="translate(294, 0)">
</g>
<g transform="translate(308, 0)">
</g>
<g transform="translate(322, 0)">
</g>
<g transform="translate(336, 0)">
</g>
<g transform="translate(350, 0)">
</g>
<g transform="translate(364, 0)">
</g>
<g transform="translate(378, 0)">
</g>
<g transform="translate(392, 0)">
</g>
<g transform="translate(406, 0)">
</g>
<g transform="translate(420, 0)">
</g>
<g transform="translate(434, 0)">
</g>
<g transform="translate(448, 0)">
</g>
<g transform="translate(462, 0)">
</g>
<g transform="translate(476, 0)">
</g>
<g transform="translate(490, 0)">
</g>
<g transform="translate(504, 0)">
</g>
<g transform="translate(518, 0)">
</g>
<g transform="translate(532, 0)">
</g>
<g transform="translate(546, 0)">
</g>
<g transform="translate(560, 0)">
</g>
<g transform="translate(574, 0)">
</g>
<g transform="translate(588, 0)">
</g>
<g transform="translate(602, 0)">
</g>
<g transform="translate(616, 0)">
</g>
<g transform="translate(630, 0)">
</g>
<g transform="translate(644, 0)">
</g>
<g transform="translate(658, 0)">
</g>
<g transform="translate(672, 0)">
</g>
<g transform="translate(686, 0)">
</g>
<g transform="translate(700, 0)">
</g>
<g transform="translate(714, 0)">
</g>
<g transform="translate(728, 0)">
</g>

<text x="14" y="-7" class="ContributionCalendar-label">Apr</text>
<text x="40" y="-7" class="ContributionCalendar-label">May</text>
<text x="105" y="-7" class="ContributionCalendar-label">Jun</text>
<text x="157" y="-7" class="ContributionCalendar-label">Jul</text>
<text x="222" y="-7" class="ContributionCalendar-label">Aug</text>
<text x="274" y="-7" class="ContributionCalendar-label">Sep</text>
<text x="326" y="-7" class="ContributionCalendar-label">Oct</text>
<text x="391" y="-7" class="ContributionCalendar-label">Nov</text>
<text x="443" y="-7" class="ContributionCalendar-label">Dec</text>
<text x="495" y="-7" class="ContributionCalendar-label">Jan</text>
<text x="560" y="-7" class="ContributionCalendar-label">Feb</text>
<text x="612" y="-7" class="ContributionCalendar-label">Mar</text>
<text x="664" y="-7" class="ContributionCalendar-label">Apr</text>

</g>  </svg>
